<?xml version="1.0" encoding="UTF-8" standalone="no"?>
<!-- Created with Inkscape (http://www.inkscape.org/) -->

<svg
   width="4.2499924"
   height="2.25"
   viewBox="0 0 4.2499924 2.25"
   version="1.1"
   id="svg5"
   xmlns="http://www.w3.org/2000/svg"
   xmlns:svg="http://www.w3.org/2000/svg">
  <defs
     id="defs2" />
  <g
     id="layer1"
     transform="translate(-33.875004,47.125)">
    <g
       id="g1">
      <path
         style="fill:none;stroke:#ffffff;stroke-width:0.25;stroke-linejoin:bevel;stroke-dasharray:none;paint-order:markers fill stroke"
         d="m 23,25 c -1,0 -1,0 -1,-1 v -1 c 0,-1 0,-1 1,-1 1,0 1,0 1,1 v 1 c 0,1 0,1 -1,1 z"
         id="path1" />
      <path
         style="fill:none;stroke:#ffffff;stroke-width:0.25;stroke-linejoin:bevel;stroke-dasharray:none;paint-order:markers fill stroke"
         d="m 23,22 c 0,-1 0,-1 1,-1 1,0 1,0 1,1 v 1 c 0,1 0,1 -1,1"
         id="path1-0" />
    </g>
    <g
       id="g10"
       transform="translate(0.5)">
      <g
         id="g4">
        <path
           style="fill:none;stroke:#ffffff;stroke-width:0.25;stroke-linecap:round;stroke-linejoin:round;stroke-dasharray:none;paint-order:markers fill stroke"
           d="m 27.5,24 c 0,1 0,1 1,1 h 1 c 1,0 1,0 1,-1"
           id="path2" />
        <path
           style="fill:none;stroke:#ffffff;stroke-width:0.25;stroke-linecap:round;stroke-linejoin:round;stroke-dasharray:none;paint-order:markers fill stroke"
           d="m 28,23 1,1 1,-1"
           id="path3" />
        <path
           style="fill:none;stroke:#ffffff;stroke-width:0.25;stroke-linecap:round;stroke-linejoin:round;stroke-dasharray:none;paint-order:markers fill stroke"
           d="m 29,22 v 2"
           id="path4" />
      </g>
    </g>
    <path
       style="fill:none;stroke:#ffffff;stroke-width:0.25;stroke-linecap:round;stroke-linejoin:round;stroke-dasharray:none;paint-order:markers fill stroke"
       d="m 34,23 c 0,0 1,-1 2,-1 1,0 2,1 2,1 0,0 -1,1 -2,1 -1,0 -2,-1 -2,-1 z"
       id="path6" />
    <g
       id="g9">
      <path
         id="path8"
         style="fill:#ffffff;stroke-linecap:round;stroke-linejoin:round;paint-order:markers fill stroke"
         d="m 36,17 c -0.552285,0 -1,0.447715 -1,1 0,0.552285 0.447715,1 1,1 0.552285,0 1,-0.447715 1,-1 0,-0.552285 -0.447715,-1 -1,-1 z m 0,0.6 c 0.188562,0 0.4,0.211438 0.4,0.4 0,0.188562 -0.211438,0.4 -0.4,0.4 -0.188562,0 -0.4,-0.211438 -0.4,-0.4 0,-0.188562 0.211438,-0.4 0.4,-0.4 z" />
      <path
         style="fill:none;stroke:#ffffff;stroke-width:0.25;stroke-linecap:round;stroke-linejoin:round;stroke-dasharray:none;paint-order:markers fill stroke"
         d="m 34,18 c 0,0 1,-1 2,-1 1,0 2,1 2,1 0,0 -1,1 -2,1 -1,0 -2,-1 -2,-1 z"
         id="path7" />
    </g>
  </g>
</svg>
